<?xml version='1.0' encoding='utf-8'?>
<svg xmlns="http://www.w3.org/2000/svg" width="297mm" height="210mm" viewBox="0 0 297 210" version="1.1" id="svg8"> <title id="title860">Filmstrip</title> <defs id="defs2"/> <metadata id="metadata5"> </metadata> <g id="layer1" transform="translate(0,-87)"> <path style="opacity:1;fill:#000000;fill-opacity:1;fill-rule:nonzero;stroke:none;stroke-width:45.32611084;stroke-miterlimit:4;stroke-dasharray:none;stroke-dashoffset:0;stroke-opacity:1" d="m 5.4288767,87.001846 c -3.0042536,0 -5.4235846,2.460841 -5.4235846,5.516617 v 5.885763 h 4.2460612 c 1.8422082,0 3.3249832,1.508243 3.3249832,3.382054 v 11.24267 c 0,1.8738 -1.482775,3.38201 -3.3249832,3.38201 H 0.0052921 v 151.22628 h 4.2809496 c 1.8422042,0 3.3249795,1.50819 3.3249795,3.38208 v 11.24263 c 0,1.87385 -1.4827753,3.38206 -3.3249795,3.38206 H 0.0052921 v 5.84136 c 0,3.05581 2.419331,5.5149 5.4235846,5.5149 H 291.57949 c 3.00424,0 5.42182,-2.45909 5.42182,-5.5149 v -5.84136 h -4.23558 c -1.84218,0 -3.32672,-1.50821 -3.32672,-3.38206 v -11.24263 c 0,-1.87389 1.48454,-3.38208 3.32672,-3.38208 h 4.23558 V 116.41096 h -4.27048 c -1.84219,0 -3.32496,-1.50821 -3.32496,-3.38201 v -11.24267 c 0,-1.873811 1.48277,-3.382054 3.32496,-3.382054 h 4.27048 v -5.885763 c 0,-3.055776 -2.41758,-5.516617 -5.42182,-5.516617 z m 20.3057563,11.40238 h 8.18336 c 1.842198,0 3.324973,1.508243 3.324973,3.382054 v 11.24267 c 0,1.8738 -1.482775,3.38201 -3.324973,3.38201 h -8.18336 c -1.842207,0 -3.324985,-1.50821 -3.324985,-3.38201 v -11.24267 c 0,-1.873811 1.482778,-3.382054 3.324985,-3.382054 z m 29.666631,0 h 8.183357 c 1.842205,0 3.324981,1.508243 3.324981,3.382054 v 11.24267 c 0,1.8738 -1.482776,3.38201 -3.324981,3.38201 h -8.183357 c -1.842209,0 -3.324986,-1.50821 -3.324986,-3.38201 v -11.24267 c 0,-1.873811 1.482777,-3.382054 3.324986,-3.382054 z m 29.66663,0 h 8.18161 c 1.842205,0 3.326725,1.508243 3.326725,3.382054 v 11.24267 c 0,1.8738 -1.48452,3.38201 -3.326725,3.38201 h -8.18161 c -1.842198,0 -3.324974,-1.50821 -3.324974,-3.38201 v -11.24267 c 0,-1.873811 1.482776,-3.382054 3.324974,-3.382054 z m 29.666636,0 h 8.18162 c 1.84221,0 3.32496,1.508243 3.32496,3.382054 v 11.24267 c 0,1.8738 -1.48275,3.38201 -3.32496,3.38201 h -8.18162 c -1.8422,0 -3.32673,-1.50821 -3.32673,-3.38201 v -11.24267 c 0,-1.873811 1.48453,-3.382054 3.32673,-3.382054 z m 29.66489,0 h 8.18337 c 1.84221,0 3.32498,1.508243 3.32498,3.382054 v 11.24267 c 0,1.8738 -1.48277,3.38201 -3.32498,3.38201 h -8.18337 c -1.84221,0 -3.32498,-1.50821 -3.32498,-3.38201 v -11.24267 c 0,-1.873811 1.48277,-3.382054 3.32498,-3.382054 z m 29.66664,0 h 8.18337 c 1.84219,0 3.32497,1.508243 3.32497,3.382054 v 11.24267 c 0,1.8738 -1.48278,3.38201 -3.32497,3.38201 h -8.18337 c -1.84222,0 -3.32499,-1.50821 -3.32499,-3.38201 v -11.24267 c 0,-1.873811 1.48277,-3.382054 3.32499,-3.382054 z m 29.66663,0 h 8.18159 c 1.84223,0 3.32673,1.508243 3.32673,3.382054 v 11.24267 c 0,1.8738 -1.4845,3.38201 -3.32673,3.38201 h -8.18159 c -1.84218,0 -3.32496,-1.50821 -3.32496,-3.38201 v -11.24267 c 0,-1.873811 1.48278,-3.382054 3.32496,-3.382054 z m 29.66661,0 h 8.18163 c 1.8422,0 3.32499,1.508243 3.32499,3.382054 v 11.24267 c 0,1.8738 -1.48279,3.38201 -3.32499,3.38201 h -8.18163 c -1.8422,0 -3.32672,-1.50821 -3.32672,-3.38201 v -11.24267 c 0,-1.873811 1.48452,-3.382054 3.32672,-3.382054 z m 29.66491,0 h 8.18334 c 1.84223,0 3.32501,1.508243 3.32501,3.382054 v 11.24267 c 0,1.8738 -1.48278,3.38201 -3.32501,3.38201 h -8.18334 c -1.8422,0 -3.32498,-1.50821 -3.32498,-3.38201 v -11.24267 c 0,-1.873811 1.48278,-3.382054 3.32498,-3.382054 z M 9.8598592,122.50788 H 287.14675 c 1.92775,0 3.4785,1.57917 3.4785,3.53996 v 131.96852 c 0,1.96083 -1.55075,3.53998 -3.4785,3.53998 H 9.8598592 c -1.9277289,0 -3.4784931,-1.57915 -3.4784931,-3.53998 V 126.04784 c 0,-1.96079 1.5507642,-3.53996 3.4784931,-3.53996 z M 25.769522,267.63724 h 8.181614 c 1.842198,0 3.326715,1.50819 3.326715,3.38208 v 11.24263 c 0,1.87385 -1.484517,3.38206 -3.326715,3.38206 h -8.181614 c -1.842208,0 -3.324983,-1.50821 -3.324983,-3.38206 v -11.24263 c 0,-1.87389 1.482775,-3.38208 3.324983,-3.38208 z m 29.666629,0 h 8.181615 c 1.842207,0 3.324983,1.50819 3.324983,3.38208 v 11.24263 c 0,1.87385 -1.482776,3.38206 -3.324983,3.38206 h -8.181615 c -1.842197,0 -3.324978,-1.50821 -3.324978,-3.38206 v -11.24263 c 0,-1.87389 1.482781,-3.38208 3.324978,-3.38208 z m 29.664887,0 h 8.183352 c 1.842206,0 3.324987,1.50819 3.324987,3.38208 v 11.24263 c 0,1.87385 -1.482781,3.38206 -3.324987,3.38206 h -8.183352 c -1.842197,0 -3.324975,-1.50821 -3.324975,-3.38206 v -11.24263 c 0,-1.87389 1.482778,-3.38208 3.324975,-3.38208 z m 29.666632,0 h 8.18336 c 1.84221,0 3.32497,1.50819 3.32497,3.38208 v 11.24263 c 0,1.87385 -1.48276,3.38206 -3.32497,3.38206 h -8.18336 c -1.8422,0 -3.32498,-1.50821 -3.32498,-3.38206 v -11.24263 c 0,-1.87389 1.48278,-3.38208 3.32498,-3.38208 z m 29.66664,0 h 8.18162 c 1.84223,0 3.32673,1.50819 3.32673,3.38208 v 11.24263 c 0,1.87385 -1.4845,3.38206 -3.32673,3.38206 h -8.18162 c -1.8422,0 -3.32499,-1.50821 -3.32499,-3.38206 v -11.24263 c 0,-1.87389 1.48279,-3.38208 3.32499,-3.38208 z m 29.66665,0 h 8.18162 c 1.84219,0 3.32497,1.50819 3.32497,3.38208 v 11.24263 c 0,1.87385 -1.48278,3.38206 -3.32497,3.38206 h -8.18162 c -1.84222,0 -3.32674,-1.50821 -3.32674,-3.38206 v -11.24263 c 0,-1.87389 1.48452,-3.38208 3.32674,-3.38208 z m 29.66488,0 h 8.18335 c 1.84219,0 3.32497,1.50819 3.32497,3.38208 v 11.24263 c 0,1.87385 -1.48278,3.38206 -3.32497,3.38206 h -8.18335 c -1.84219,0 -3.32498,-1.50821 -3.32498,-3.38206 v -11.24263 c 0,-1.87389 1.48279,-3.38208 3.32498,-3.38208 z m 29.66662,0 h 8.18336 c 1.84222,0 3.325,1.50819 3.325,3.38208 v 11.24263 c 0,1.87385 -1.48278,3.38206 -3.325,3.38206 h -8.18336 c -1.8422,0 -3.32498,-1.50821 -3.32498,-3.38206 v -11.24263 c 0,-1.87389 1.48278,-3.38208 3.32498,-3.38208 z m 29.66664,0 h 8.18161 c 1.84223,0 3.32673,1.50819 3.32673,3.38208 v 11.24263 c 0,1.87385 -1.4845,3.38206 -3.32673,3.38206 h -8.18161 c -1.84222,0 -3.32498,-1.50821 -3.32498,-3.38206 v -11.24263 c 0,-1.87389 1.48276,-3.38208 3.32498,-3.38208 z" id="rect4546"/> <g id="g5360" style="fill:#676767;fill-opacity:1" transform="matrix(3.3757757,0,0,3.4237569,-187.98339,-275.92254)"> <rect ry="0.46323514" y="110.69081" x="57.929516" height="2.4662871" width="4.3939857" id="rect4542-9-6-3-2-1-2" style="opacity:1;fill:#676767;fill-opacity:1;fill-rule:nonzero;stroke:none;stroke-width:1.814412;stroke-miterlimit:4;stroke-dasharray:none;stroke-dashoffset:0;stroke-opacity:1"/> <rect ry="0.46323514" y="110.69081" x="66.717476" height="2.4662871" width="4.3939857" id="rect4542-9-6-3-2-1-11-6" style="opacity:1;fill:#676767;fill-opacity:1;fill-rule:nonzero;stroke:none;stroke-width:1.814412;stroke-miterlimit:4;stroke-dasharray:none;stroke-dashoffset:0;stroke-opacity:1"/> <rect ry="0.46323514" y="110.69081" x="75.505447" height="2.4662871" width="4.3939857" id="rect4542-9-6-3-2-1-4-5" style="opacity:1;fill:#676767;fill-opacity:1;fill-rule:nonzero;stroke:none;stroke-width:1.814412;stroke-miterlimit:4;stroke-dasharray:none;stroke-dashoffset:0;stroke-opacity:1"/> <rect ry="0.46323514" y="110.69081" x="84.293404" height="2.4662871" width="4.3939857" id="rect4542-9-6-3-2-1-0-8" style="opacity:1;fill:#676767;fill-opacity:1;fill-rule:nonzero;stroke:none;stroke-width:1.814412;stroke-miterlimit:4;stroke-dasharray:none;stroke-dashoffset:0;stroke-opacity:1"/> <rect ry="0.46323514" y="110.69081" x="93.081367" height="2.4662871" width="4.3939857" id="rect4542-9-6-3-2-1-49-4" style="opacity:1;fill:#676767;fill-opacity:1;fill-rule:nonzero;stroke:none;stroke-width:1.814412;stroke-miterlimit:4;stroke-dasharray:none;stroke-dashoffset:0;stroke-opacity:1"/> <rect ry="0.46323514" y="110.69081" x="101.86933" height="2.4662871" width="4.3939857" id="rect4542-9-6-3-2-1-7-2" style="opacity:1;fill:#676767;fill-opacity:1;fill-rule:nonzero;stroke:none;stroke-width:1.814412;stroke-miterlimit:4;stroke-dasharray:none;stroke-dashoffset:0;stroke-opacity:1"/> <rect ry="0.46323514" y="110.69081" x="110.6573" height="2.4662871" width="4.3939857" id="rect4542-9-6-3-2-1-8-4" style="opacity:1;fill:#676767;fill-opacity:1;fill-rule:nonzero;stroke:none;stroke-width:1.814412;stroke-miterlimit:4;stroke-dasharray:none;stroke-dashoffset:0;stroke-opacity:1"/> <rect ry="0.46323514" y="110.69081" x="119.44527" height="2.4662871" width="4.3939857" id="rect4542-9-6-3-2-1-3-1" style="opacity:1;fill:#676767;fill-opacity:1;fill-rule:nonzero;stroke:none;stroke-width:1.814412;stroke-miterlimit:4;stroke-dasharray:none;stroke-dashoffset:0;stroke-opacity:1"/> <rect ry="0.46323514" y="110.69081" x="128.23323" height="2.4662871" width="4.3939857" id="rect4542-9-6-3-2-1-3-1-3" style="opacity:1;fill:#676767;fill-opacity:1;fill-rule:nonzero;stroke:none;stroke-width:1.814412;stroke-miterlimit:4;stroke-dasharray:none;stroke-dashoffset:0;stroke-opacity:1"/> <rect ry="0.46323514" y="110.69081" x="137.02119" height="2.4662871" width="4.3939857" id="rect4542-9-6-3-2-1-3-1-3-0-8" style="opacity:1;fill:#676767;fill-opacity:1;fill-rule:nonzero;stroke:none;stroke-width:1.814412;stroke-miterlimit:4;stroke-dasharray:none;stroke-dashoffset:0;stroke-opacity:1"/> <rect ry="0.46323514" y="159.99728" x="57.940571" height="2.4662871" width="4.3939857" id="rect4542-9-6-3-2-1-1" style="opacity:1;fill:#676767;fill-opacity:1;fill-rule:nonzero;stroke:none;stroke-width:1.814412;stroke-miterlimit:4;stroke-dasharray:none;stroke-dashoffset:0;stroke-opacity:1"/> <rect ry="0.46323514" y="159.99728" x="66.728546" height="2.4662871" width="4.3939857" id="rect4542-9-6-3-2-1" style="opacity:1;fill:#676767;fill-opacity:1;fill-rule:nonzero;stroke:none;stroke-width:1.814412;stroke-miterlimit:4;stroke-dasharray:none;stroke-dashoffset:0;stroke-opacity:1"/> <rect ry="0.46323514" y="159.99728" x="75.51651" height="2.4662871" width="4.3939857" id="rect4542-9-6-3-2-1-11" style="opacity:1;fill:#676767;fill-opacity:1;fill-rule:nonzero;stroke:none;stroke-width:1.814412;stroke-miterlimit:4;stroke-dasharray:none;stroke-dashoffset:0;stroke-opacity:1"/> <rect ry="0.46323514" y="159.99728" x="84.304482" height="2.4662871" width="4.3939857" id="rect4542-9-6-3-2-1-4" style="opacity:1;fill:#676767;fill-opacity:1;fill-rule:nonzero;stroke:none;stroke-width:1.814412;stroke-miterlimit:4;stroke-dasharray:none;stroke-dashoffset:0;stroke-opacity:1"/> <rect ry="0.46323514" y="159.99728" x="93.092438" height="2.4662871" width="4.3939857" id="rect4542-9-6-3-2-1-0" style="opacity:1;fill:#676767;fill-opacity:1;fill-rule:nonzero;stroke:none;stroke-width:1.814412;stroke-miterlimit:4;stroke-dasharray:none;stroke-dashoffset:0;stroke-opacity:1"/> <rect ry="0.46323514" y="159.99728" x="101.8804" height="2.4662871" width="4.3939857" id="rect4542-9-6-3-2-1-49" style="opacity:1;fill:#676767;fill-opacity:1;fill-rule:nonzero;stroke:none;stroke-width:1.814412;stroke-miterlimit:4;stroke-dasharray:none;stroke-dashoffset:0;stroke-opacity:1"/> <rect ry="0.46323514" y="159.99728" x="110.66836" height="2.4662871" width="4.3939857" id="rect4542-9-6-3-2-1-7" style="opacity:1;fill:#676767;fill-opacity:1;fill-rule:nonzero;stroke:none;stroke-width:1.814412;stroke-miterlimit:4;stroke-dasharray:none;stroke-dashoffset:0;stroke-opacity:1"/> <rect ry="0.46323514" y="159.99728" x="119.45633" height="2.4662871" width="4.3939857" id="rect4542-9-6-3-2-1-8" style="opacity:1;fill:#676767;fill-opacity:1;fill-rule:nonzero;stroke:none;stroke-width:1.814412;stroke-miterlimit:4;stroke-dasharray:none;stroke-dashoffset:0;stroke-opacity:1"/> <rect ry="0.46323514" y="159.99728" x="128.24431" height="2.4662871" width="4.3939857" id="rect4542-9-6-3-2-1-3" style="opacity:1;fill:#676767;fill-opacity:1;fill-rule:nonzero;stroke:none;stroke-width:1.814412;stroke-miterlimit:4;stroke-dasharray:none;stroke-dashoffset:0;stroke-opacity:1"/> <rect ry="0.46323514" y="159.99728" x="137.03226" height="2.4662871" width="4.3939857" id="rect4542-9-6-3-2-1-75" style="opacity:1;fill:#676767;fill-opacity:1;fill-rule:nonzero;stroke:none;stroke-width:1.814412;stroke-miterlimit:4;stroke-dasharray:none;stroke-dashoffset:0;stroke-opacity:1"/> </g> </g> </svg>